<svg xmlns="http://www.w3.org/2000/svg" fill="none" viewBox="0 0 48 48"><rect width="48" height="48" fill="#FFD6A8" rx="24"/><path fill="#894B00" d="m18.433 25.333 6.534 6.534c.266.266.394.577.384.933-.011.356-.15.667-.418.933a1.409 1.409 0 0 1-.933.384 1.217 1.217 0 0 1-.933-.384l-8.8-8.8a1.176 1.176 0 0 1-.284-.433 1.558 1.558 0 0 1 .003-1c.053-.156.148-.3.282-.433l8.8-8.8c.244-.245.55-.367.917-.367s.684.122.95.367c.266.266.4.583.4.95s-.134.684-.4.95l-6.502 6.5h14.9c.378 0 .695.128.951.384s.383.572.383.949c-.001.377-.13.694-.384.95a1.276 1.276 0 0 1-.95.383h-14.9Z"/></svg>