<svg xmlns="http://www.w3.org/2000/svg" fill="none" viewBox="0 0 32 32"><path fill="#894B00" d="M5.333 25.333v-12c0-.422.095-.822.284-1.2.19-.377.45-.689.783-.933l8-6a2.57 2.57 0 0 1 1.6-.533c.6 0 1.133.177 1.6.533l8 6c.333.244.595.556.784.933.19.378.284.778.283 1.2v12c0 .734-.262 1.362-.784 1.884A2.563 2.563 0 0 1 24 28h-4c-.378 0-.694-.128-.95-.384a1.297 1.297 0 0 1-.383-.95V20c0-.378-.128-.694-.384-.95a1.297 1.297 0 0 0-.95-.383h-2.666c-.378 0-.695.128-.95.384a1.296 1.296 0 0 0-.384.949v6.667c0 .377-.128.694-.384.95A1.286 1.286 0 0 1 12 28H8c-.732 0-1.36-.26-1.882-.783a2.573 2.573 0 0 1-.784-1.884Z"/></svg>