<svg xmlns="http://www.w3.org/2000/svg" fill="none" viewBox="0 0 380 97"><path fill="url(#a)" d="M85.265 20.725c-.712 2.244-2.102 2.345-7.765.565-4.572-1.437-6.355-1.686-11.944-1.665-7.859.03-10 .477-15.667 3.278-7.407 3.662-13.878 11.625-15.968 19.65-3.99 15.323 5.266 29.435 22.136 33.752 8.633 2.208 21.632 1.271 29.278-2.112l3.214-1.422.007-9.144c.004-5.03.17-10.137.37-11.35.504-3.043 2.164-4.666 4.773-4.666 1.428 0 2.036-.243 1.868-.747-.316-.947-23.13-1.094-23.165-.15-.013.33 1.075.753 2.416.94 1.344.19 3.029.933 3.755 1.66 1.242 1.24 1.327 1.911 1.502 11.926l.185 10.612-2.053.98c-5.683 2.71-14.769 2.835-20.352.278-13.437-6.154-18.79-25.874-10.897-40.137 4.145-7.491 12.051-11.53 21.326-10.894 8.28.568 13.7 4.098 17.328 11.29 1.009 1.998 2.056 3.4 2.326 3.113.27-.287.13-4.017-.313-8.29a1275.93 1275.93 0 0 1-.836-8.215c-.066-.934-1.161-.397-1.524.748Z"/><path fill="url(#b)" fill-rule="evenodd" d="M210.672 44.624a8781.243 8781.243 0 0 0-9.187-19.867c-1.34-2.875-2.774-5.22-3.188-5.212-.413.01-4.633 8.277-9.378 18.373-16.632 35.386-17.294 36.58-20.306 36.58-.549 0-1.521.395-2.159.877-1.035.783-.118.88 8.546.896 9.281.019 12.428-.587 7.308-1.406-1.319-.211-2.935-.922-3.592-1.58-1.498-1.498-1.25-2.652 2.151-9.99l2.562-5.527h24.42l2.525 5.228c4.073 8.432 3.922 11.149-.662 11.882-5.345.855-1.546 1.412 9.633 1.412 11.297 0 14.976-.557 9.479-1.437-4.491-.718-4.705-1.076-18.152-30.23Zm-25.369 9.73c0-.234 2.332-5.348 5.182-11.364 2.852-6.017 5.391-10.732 5.643-10.479.593.597 10.078 21.066 10.078 21.75 0 .286-4.703.52-10.452.52-5.748 0-10.451-.192-10.451-.427Z" clip-rule="evenodd"/><path fill="url(#c)" d="M283.327 21.345c-1.625 2.2-2.913 2.23-8.218.196-5.194-1.992-14.259-2.508-19.289-1.098-14.221 3.987-22.738 14.857-22.738 29.023 0 16.254 12.403 28.001 29.563 28.001 8.881 0 15.608-2.728 20.944-8.494 5.845-6.316 5.81-8.12-.04-2.14-7.857 8.027-19.389 9.89-29.414 4.748-8.88-4.554-13.217-16.791-10.647-30.042 2.631-13.564 10.487-20.224 23.001-19.499 8.25.478 13.778 4.163 17.456 11.638 1.709 3.474 3.385 5.192 2.662 2.73-.169-.575-.492-4.48-.719-8.679-.227-4.198-.602-7.75-.833-7.892-.231-.144-1.009.535-1.728 1.508Z"/><path fill="url(#d)" fill-rule="evenodd" d="M146.775 36.98c1.181-5.662-2.922-11.86-9.606-14.512-3.362-1.334-4.349-1.41-21.062-1.62-12.456-.156-17.419-.032-17.136.426.22.355 1.311.645 2.426.645 2.737 0 4.801 1.026 5.601 2.783.449.985.663 8.777.663 24.099v22.642l-1.363 1.587c-1.001 1.164-2.116 1.67-4.195 1.904-1.557.176-2.975.553-3.15.838-.178.286 5.566.518 12.854.518 8.384 0 13.174-.217 13.174-.597 0-.329-1.179-.598-2.621-.598-3.825 0-5.058-1.274-5.782-5.975-.329-2.136-.521-7.244-.428-11.352l.171-7.468 6.57-.32 20.903 26.238 8.212.036c8.089.036 10.69-.641 5.674-1.477-5.429-.904-8.073-3.043-15.86-12.826a2957.336 2957.336 0 0 0-7.095-8.882c-1.417-1.763-2.577-3.388-2.577-3.61 0-.223 1.199-.726 2.665-1.118 6.168-1.65 10.868-6.115 11.962-11.362Zm-29.971-12.576c.4-.332 1.799-.72 3.108-.863 7.109-.774 13.268 1.66 15.702 6.209 1.979 3.698 1.676 9.018-.69 12.122-2.246 2.946-6.643 5.056-11.939 5.727-3.09.392-4.793.759-5.732.075-1.289-.939-1.135-3.86-1.151-11.421-.017-8.127.177-11.413.702-11.85Z" clip-rule="evenodd"/><path fill="url(#e)" d="M341.693 30.881c.47 1.164.612.206.644-4.331l.04-5.826h-23.691c-13.029 0-23.508.183-23.284.406.222.224 1.529.51 2.903.639 1.374.128 2.974.487 3.555.799 2.126 1.138 2.377 4.277 2.183 27.268-.184 21.797-.214 22.265-1.465 23.517-.789.789-2.335 1.396-4.045 1.589-1.522.171-2.914.548-3.092.837-.186.3 9.868.458 23.396.369l23.722-.156 2.322-6.202c1.277-3.411 2.226-6.49 2.109-6.84-.116-.35-1.225.89-2.464 2.757-4.642 6.995-7.659 8.193-20.639 8.193-5.79 0-8.648.239-10.051-1.076-1.566-1.467-1.321-4.87-1.321-12.7V48.208h7.436c9.86 0 13.199.727 14.704 3.197.632 1.035 1.149 2.622 1.15 3.525.002 1.048.321 1.643.882 1.643.742 0 .858-1.444.746-9.259-.083-5.849-.352-9.187-.73-9.063-.328.11-.679.713-.78 1.344-.863 5.406-2.752 6.224-14.39 6.224h-9.018V23.114l11.198.002c14.464 0 14.927.2 17.98 7.765Z"/><path stroke="url(#f)" stroke-width="4" d="M2 2h376v93H2z"/><defs><linearGradient id="a" x1="33" x2="347" y1="48.5" y2="48.5" gradientUnits="userSpaceOnUse"><stop stop-color="#DF9F67"/><stop offset="1" stop-color="#C48F57"/></linearGradient><linearGradient id="b" x1="33" x2="347" y1="48.5" y2="48.5" gradientUnits="userSpaceOnUse"><stop stop-color="#DF9F67"/><stop offset="1" stop-color="#C48F57"/></linearGradient><linearGradient id="c" x1="33" x2="347" y1="48.5" y2="48.5" gradientUnits="userSpaceOnUse"><stop stop-color="#DF9F67"/><stop offset="1" stop-color="#C48F57"/></linearGradient><linearGradient id="d" x1="33" x2="347" y1="48.5" y2="48.5" gradientUnits="userSpaceOnUse"><stop stop-color="#DF9F67"/><stop offset="1" stop-color="#C48F57"/></linearGradient><linearGradient id="e" x1="33" x2="347" y1="48.5" y2="48.5" gradientUnits="userSpaceOnUse"><stop stop-color="#DF9F67"/><stop offset="1" stop-color="#C48F57"/></linearGradient><linearGradient id="f" x1="0" x2="380" y1="48.5" y2="48.5" gradientUnits="userSpaceOnUse"><stop stop-color="#DF9F67"/><stop offset="1" stop-color="#C48F57"/></linearGradient></defs></svg>